<svg version="1.1" xmlns="http://www.w3.org/2000/svg" x="0px" y="0px" viewBox="-169 121 60 60" style="enable-background:new -169 121 60 60;" xml:space="preserve">
<path fill="#63D1BB" d="M-138.8,121h-0.2l-23.6,2.5V167l23.6,14l23.6-14v-43.4C-115.4,123.5-138.8,121-138.8,121z M-118.4,165.2l-20.6,12.2l-20.6-12.2v-17.8l20.5,12.2v2.2l-14-8.4v2.2l14.2,8.5v2.3l-14.2-8.4v2.2l14.2,8.4l14.3-8.5v-9.1l6.4-3.8V165.2zM-118.5,144.8l-5.6,3.4l-2.6,1.6l-12.4-7.3v2.2l10.6,6.4h-0.1l-0.2,0.1l-1.6,0.8l-8.8-5.2v2.2l7,4.1l-1.7,1.1l-5.2-3.1v2.2l3.5,2l-3.5,2l-20.4-12.1l20.4-12.2C-139.1,132.8-118.5,144.8-118.5,144.8z M-118.4,142.6l-20.8-12.2l-20.5,12.2v-16.3l20.6-2.2l20.6,2.2C-118.4,126.3-118.4,142.6-118.4,142.6z"/>
</svg>
