<?xml version="1.0" encoding="utf-8"?>
<!-- Generator: Adobe Illustrator 19.1.1, SVG Export Plug-In . SVG Version: 6.00 Build 0)  -->
<svg version="1.1" id="Layer_1" xmlns="http://www.w3.org/2000/svg" xmlns:xlink="http://www.w3.org/1999/xlink" x="0px" y="0px"
	 viewBox="-169 121.4 60 59.6" style="enable-background:new -169 121.4 60 59.6;" xml:space="preserve">
<style type="text/css">
	.st0{fill:#35A999;}
</style>
<path class="st0" d="M-169,165.1l27.4,15.9v-23.3l-27.4-15.9V165.1z M-117.7,133.8v2.5c0,1.8-3.5,3.3-7.7,3.3
	c-4.3,0-7.7-1.5-7.7-3.3v-4.1h0c0.3,1.7,3.6,3.1,7.7,3.1c4.3,0,7.7-1.5,7.7-3.3c0-1.8-3.5-3.3-7.7-3.3c-0.3,0-0.7,0-1,0l-5-2.9v3.1
	c0,1.8-3.5,3.3-7.7,3.3c-2.7,0-5-0.6-6.4-1.5c-0.2-0.2-0.4-0.4-0.7-0.6c-0.4-0.4-0.6-0.8-0.6-1.2v-3l-4.8,2.8c-0.3,0-0.7,0-1.1,0
	c-4.3,0-7.7,1.5-7.7,3.3c0,1.8,3.5,3.3,7.7,3.3c4.1,0,7.4-1.4,7.7-3.1h0v4.1c0,1.8-3.5,3.3-7.7,3.3c-4.3,0-7.7-1.5-7.7-3.3v-2.4
	l-6,3.5l27.5,16l27.4-15.9L-117.7,133.8z M-131.3,144c0,1.8-3.5,3.3-7.7,3.3c-4.3,0-7.7-1.5-7.7-3.3v-4.1h0c0.3,1.7,3.6,3.1,7.7,3.1
	c4.1,0,7.4-1.4,7.7-3.1h0L-131.3,144L-131.3,144z M-136.4,157.9V181l27.4-15.9v-23.1L-136.4,157.9z M-139.1,128
	c4.3,0,7.7-1.5,7.7-3.3c0-1.8-3.5-3.3-7.7-3.3c-4.3,0-7.7,1.5-7.7,3.3C-146.8,126.5-143.4,128-139.1,128"/>
</svg>
