<svg xmlns="http://www.w3.org/2000/svg" viewBox="-182 133.6 34.4 34.4"><g fill="#63D1BB"><path d="M-181.7 147.7c-.4 2.1-.4 4.2 0 6.3l4.1-3.2-4.1-3.1zM-157.6 135.2c-4.8-2.2-10.4-2.1-15.3.4l7.5 5.6 7.8-6zM-148.1 146.8l-4.8 3.7 4.9 3.7c.5-2.4.5-4.9-.1-7.4zM-172.8 166c4.8 2.5 10.7 2.7 15.7.1l-8.1-6.1-7.6 6zM-174.1 148.1l-6.2-4.7c-.3.7-.6 1.4-.8 2.1l5.3 4 1.7-1.4zM-163.4 158.7l8.3 6.2c.3-.2.6-.4.8-.6.3-.2.6-.5.9-.8l-8.3-6.2-1.7 1.4zM-170.6 145.3l-7.4-5.5c-.5.6-.9 1.1-1.3 1.7l6.9 5.2 1.8-1.4zM-159.9 156l8.1 6.1c.5-.5.9-1.1 1.3-1.7l-7.6-5.7-1.8 1.3zM-167.1 142.6l-7.7-5.8c-.2.1-.4.3-.6.4-.4.3-.8.6-1.1 1l7.7 5.7 1.7-1.3zM-156.4 153.3l7 5.2c.3-.7.6-1.3.9-2l-6.1-4.6-1.8 1.4zM-155.6 136.3l-25.6 19.9c.2.7.5 1.4.8 2.1l26.5-20.7c-.4-.4-1-.9-1.7-1.3zM-151.3 140.3c-.3-.4-.6-.8-.9-1.1l-27 21c.3.4.5.8.8 1.2.1.2.3.4.4.5l27.1-21.1c-.1-.2-.2-.4-.4-.5zM-149.7 142.6l-26.7 20.8c.5.5 1.1 1 1.7 1.4l26-20.2c-.3-.7-.6-1.3-1-2z"/></g></svg>