<svg xmlns="http://www.w3.org/2000/svg" viewBox="-179 119.6 40.2 62.4"><g fill="#35A999"><path d="M-163.7 157.6c-.3 1-.2 2.2 0 3.6.5 2.6 1.7 6 2.4 9.7h5.1c.7-3.6 1.9-7.1 2.5-9.7.3-1.4.3-2.7 0-3.6s-.9-1.6-2-2.3h-6c-1.2.7-1.8 1.4-2 2.3zM-151.9 177.6h-13.8c-1.3 0-2.3 1-2.3 2.2v2.2H-149.6v-2.2c0-1.3-1-2.2-2.3-2.2zM-144.8 121.8h-11.7c0-1.2-1-2.2-2.3-2.2s-2.3 1-2.3 2.2h-11.7l-6.1 25.5c.8-.5 1.6-1 2.6-1 1.4 0 2.2.8 2.9 1.4.7.6 1.2.8 1.4.8.3 0 .8-.3 1.5-.8s1.6-1.4 2.9-1.4 2.2.8 2.9 1.4c.7.5 1.2.8 1.5.8.1 0 .3-.1.6-.2.2-.1.5-.4.9-.6.5-.4 1.1-1 2-1.2.3-.1.6-.1.9-.1 1.3 0 2.2.8 2.9 1.4.7.5 1.2.8 1.5.8s.8-.3 1.4-.8c.7-.6 1.6-1.4 2.9-1.4 1.4 0 2.2.8 2.9 1.4.3.3.6.5.9.6.2.1.4.2.6.2.3 0 .8-.3 1.4-.9.7-.6 1.6-1.4 2.9-1.4 1 0 1.8.5 2.6 1l-6-25.5zM-155.4 173.1h-6.9c-.7 0-1.1.5-1.1 1.1s.5 1.1 1.1 1.1h6.9c.7 0 1.1-.5 1.1-1.1.1-.6-.4-1.1-1.1-1.1zM-158.8 148.6c-.1 0-.3.1-.6.2-.2.1-.4.3-.6.4v3.7h2.3v-3.7c-.5-.3-.9-.6-1.1-.6z"/></g></svg>