<?xml version="1.0" encoding="utf-8"?>
<!-- Generator: Adobe Illustrator 19.1.1, SVG Export Plug-In . SVG Version: 6.00 Build 0)  -->
<svg version="1.1" id="Layer_1" xmlns="http://www.w3.org/2000/svg" xmlns:xlink="http://www.w3.org/1999/xlink" x="0px" y="0px"
	 viewBox="-188 140.7 21.8 21.3" style="enable-background:new -188 140.7 21.8 21.3;" xml:space="preserve">
<style type="text/css">
	.st0{fill:#231F20;}
</style>
<g id="instagram">
	<g>
		<path class="st0" d="M-166.2,152.8c0-2.4-0.3-4.8-0.3-7.1c0-0.8-0.1-1.5-0.2-2.3c-0.1-0.3-0.1-0.7-0.2-1.1
			c-0.3-0.2-0.2-0.6-0.5-0.8c-0.4-0.2-1.2-0.1-1.7-0.2c-0.7,0-1.3-0.1-1.9-0.2c-1.9-0.1-4-0.1-6-0.1c-2,0-4-0.1-5.7-0.4h-2.2
			c-0.1,0-0.1,0.1-0.2,0.1c-0.6,0-1.1,0.2-1.6,0.3c-0.2,0.1-0.4,0.2-0.7,0.3c-0.1,0.2-0.5,0.1-0.6,0.4c-0.2,0.2,0.2,0.5,0,0.6v0.9
			c0.2,0.1,0,0.6,0.1,0.8v1c0,1.3,0.1,2.4,0.1,3.7c0.5,2.8,0.4,6.5,0.1,9.4c0.2,0.6,0.4,1.1,0.5,1.7c0.3,0.5,0.3,1.1,0.7,1.5
			c0.5,0.2,1.2,0.2,1.9,0.2c0.4,0.1,0.7,0.3,1.1,0.3c2.8-0.2,5.5-0.2,8.4-0.2c2.7,0.2,5.8,0.2,8.3-0.2c0.2-0.1,0.1-0.5,0.2-0.8
			c-0.1-0.4,0.2-0.4,0.2-0.8C-166.3,157.6-166.2,155.2-166.2,152.8z M-179.2,146.6c0.8-0.2,1.5-0.3,2.4-0.3c0.7,0.1,1.3,0.3,1.9,0.5
			c0.1,0.2-0.2,0.5,0.2,0.7v0.1c0.1,0,0.1,0,0.2,0.1c0.4,0,0.8,0.2,1.1,0.4c0.4,0.1,0.5,0.5,1.1,0.3c-0.1,0.2-0.1,0.5-0.1,0.8
			c0.3,1.2,0.5,2.8,0.3,4.3c-0.2,0.2-0.2,0.4-0.3,0.7c-0.3,0.3-0.5,0.8-0.8,1.1c-0.1,0.2-0.3,0.4-0.5,0.5c-0.1,0.2-0.2,0.5-0.5,0.5
			c-0.3,0.2-0.6,0-0.8-0.1c-0.4,0.2-0.9,0.3-1.2,0.6c-0.8-0.1-1.6-0.2-2.4-0.3c-0.2-0.1-0.5-0.3-0.8-0.3c-0.2-0.2-0.5-0.4-0.8-0.5
			c-0.1-0.1-0.3-0.1-0.5-0.2c-0.2,0-0.2-0.2-0.5-0.2c-0.1-0.4-0.4-0.6-0.5-1.1c-0.2-0.3-0.3-0.8-0.5-1.2c0-1.4,0.1-2.7,0.4-3.8
			c0.3-0.6,0.8-1.1,1.1-1.7c0.2,0,0.4-0.1,0.4-0.3c0.3,0.1,0.4-0.1,0.7-0.1C-179.4,147-179.4,146.7-179.2,146.6z M-180.9,143.8
			c-0.1-0.3-0.1-0.7-0.1-1.1c0-0.3,0.3-0.3,0.3-0.5c0-0.1-0.1-0.1-0.2-0.1c0.1-0.1,0.7-0.1,0.8,0c0.1,0.5-0.4,0.5-0.5,0.7
			c0,0.2,0.3,0,0.5,0.1c0,0.9-0.1,1.5,0,2.2h-0.5c0,0.2,0.2,0.2,0.5,0.2c-0.1,0.3,0.1,0.4,0.1,0.6c-0.2,0.2-0.7,0-1.1,0.1
			C-181.1,145.5-180.8,144.7-180.9,143.8z M-181.6,142.3c0.1,0,0.1,0,0.2,0.1c0.2,0.3,0,0.7-0.1,0.9
			C-181.7,143.1-181.5,142.6-181.6,142.3z M-181.4,144.1c-0.1-0.1-0.2-0.2-0.2-0.5C-181.4,143.7-181.4,143.9-181.4,144.1z
			 M-181.4,145.4c-0.1,0.1-0.1,0-0.1-0.2C-181.4,145.2-181.4,145.3-181.4,145.4z M-181.6,145.7c0.2,0,0.1,0.2,0.2,0.2
			c0,0.2-0.3,0.2-0.4,0.1C-181.7,145.9-181.6,145.8-181.6,145.7z M-183.9,144.5c0-0.1,0-0.2-0.1-0.2c-0.1-0.7,0.1-1.4,0-2
			c0.3-0.2,0.8,0,1.1-0.1v1.1c-0.1,0.1-0.2,0.1-0.4,0.1c-0.1,0.3,0.3,0.1,0.4,0.3c0,0.9-0.1,1.8,0.2,2.4c-0.6-0.1-0.9,0.1-1.4,0.1
			c0.1-0.6,0-1.4,0.5-1.6C-183.6,144.5-183.9,144.6-183.9,144.5z M-184.5,144.5c-0.2,0-0.2-0.5-0.1-0.6
			C-184.2,143.9-184.3,144.3-184.5,144.5z M-184.6,145.4c0.1-0.3,0-0.3,0.1-0.7C-184.3,144.8-184.3,145.5-184.6,145.4z
			 M-184.4,143.4c-0.3,0.1-0.3-0.3-0.2-0.4C-184.3,143-184.3,143.3-184.4,143.4z M-184.4,142.3c0,0.2-0.1,0.2-0.1,0.3
			c-0.2,0-0.1-0.2-0.2-0.2C-184.7,142.2-184.5,142.3-184.4,142.3z M-184.6,146c0.1,0,0.1,0.3-0.1,0.2
			C-184.6,146.1-184.6,146.1-184.6,146z M-185.3,142.3c0,0.3-0.4,0.3-0.4,0H-185.3z M-186.3,142.3c0,0.2-0.3,0.2-0.4,0.4
			C-186.9,142.5-186.6,142.2-186.3,142.3z M-186.7,143.1c0.2-0.2,0.5-0.4,0.7-0.6c0-0.1,0.1-0.1,0.1-0.2h0.2
			c0.1,0.4-0.3,0.3-0.3,0.5c0,0.1-0.1,0.1-0.1,0.2c0,0.3,0.1,0.6,0.1,1c-0.3,0-0.3,0.3-0.6,0.2
			C-186.6,143.8-186.8,143.6-186.7,143.1z M-186.7,146.4v-1.6c0.2-0.2,0.4-0.4,0.6-0.5c0.3,0.5,0.2,1.4,0.5,1.9
			C-185.9,146.3-186.3,146.2-186.7,146.4z M-168.4,157.4c-0.1,1-0.2,2-0.4,2.8c-2.9,0.1-6,0-8.9,0.2c-0.2,0-0.3,0-0.2-0.2
			c-0.3,0-0.3,0.2-0.5,0.2c0.2-0.3,0.4-0.9,0.2-1.3c-0.8,0-0.8,0.8-1.1,1.3c-0.7-0.1-1.1,0.1-1.8,0.1c0.2-0.7,0.8-1,0.9-1.7
			c-0.4-0.6-1,0.1-1.2,0.5c-0.2,0.5-0.6,0.8-0.8,1.3h-1c0.2-0.5,0.5-0.9,0.8-1.4c0.2-0.5,0.6-0.7,0.7-1.4c-0.2-0.3-0.4,0-0.7,0
			c-0.1,0.2-0.3,0.3-0.4,0.5c-0.2,0.4-0.5,0.7-0.7,1.1c-0.2,0.2-0.3,0-0.5,0.2c-0.4,0.3-0.6,0.7-1,1c-0.2-0.1,0-0.4,0.2-0.4
			c0-0.2-0.1-0.6,0.1-0.6c0.1-0.4,0.2-0.6,0.4-0.9c0.1-0.7,0.5-1.2,0.7-1.9c-0.6,0.1-0.7,0.6-1,1c-0.2,0.4-0.5,0.8-0.7,1.3
			c-0.2-0.1,0-0.6-0.1-0.8c0.1-0.6,0.3-1.1,0.4-1.7c0.1-0.2,0.2-0.5,0.2-0.8c0.2-0.2,0-0.6-0.1-0.8c-0.2,0-0.4,0.1-0.5,0.3
			c-0.2,0-0.2,0.5-0.3,0.3c0-2.6-0.5-4.8-0.5-7.4c0-0.3-0.2-0.4-0.2-0.7c1.6,0,3.1,0.1,4.8,0.2c-0.1,0.1-0.2,0.3-0.3,0.4
			c-0.1,0.1-0.2,0.2-0.4,0.3c-0.6,1.7-1,4-0.6,6.1c0.2,0.6,0.6,1,1,1.4c0.9,0.5,1.6,1.1,2.5,1.7c1.7,0.4,3.8,0.4,5.5,0
			c0.2-0.1,0.5-0.2,0.7-0.4c1.4-1.2,2.8-2.5,3-4.9V151c-0.2-1.6-0.7-2.9-1.7-3.6c0.3-0.2,1.1,0,1.7,0.1c0.2,0,0.4,0,0.7,0
			c0.4,0,0.9-0.1,1.4,0c0.1,0.2,0.1,0.5,0.2,0.8c-0.1,1.7-0.2,3.3-0.2,5.1c0.1,0.5,0.1,1,0.2,1.4
			C-168.1,155.7-168.2,156.6-168.4,157.4z M-168.1,146.3c-0.6-0.1-1.2-0.3-1.9-0.4c0.1-0.3,0.8,0,1-0.2c0.4-0.2,0.3-0.9,0.3-1.5
			c0-0.3,0.1-0.6,0.1-1.1c-0.4-1-1.8-0.4-2.9-0.5c-0.2,0.7-0.5,1.8-0.3,2.7c0.2,0.5,1,0.3,1.5,0.5c-0.1,0.3-0.7,0.1-1,0.1
			c-0.3-0.1-0.7-0.1-1-0.2c-2.3,0.1-4.3,0-6.5,0.2c0.1-1.2,0.1-2.5-0.1-3.6h3.1c-0.3,0.4-0.9,0.5-1.3,0.8c-0.4,0.2-0.9,0.5-1.1,0.9
			c0.2,0.1,0.5-0.2,0.8-0.4c0.4-0.1,0.5-0.4,0.8-0.5c0.4-0.4,1.1-0.6,1.7-0.9c0.4,0,0.7,0,1,0.1c1.3,0,2.5,0.1,3.8,0.1
			c0.6,0.1,1.4,0.1,2,0.3c0.1,0.3,0.2,0.6,0.3,0.9C-167.8,144.5-168,145.4-168.1,146.3z M-173.9,142.6
			C-173.8,142.5-173.9,142.5-173.9,142.6L-173.9,142.6z M-173.9,142.6c-0.5,0.2-1,0.3-1.4,0.7C-174.8,143-174.2,142.9-173.9,142.6z
			 M-172.8,143.2C-172.7,143.1-172.8,143.1-172.8,143.2L-172.8,143.2z M-174.6,144.1c0.7-0.2,1.2-0.6,1.7-0.9c-0.4,0-0.6,0.3-1,0.4
			C-174,143.8-174.4,143.8-174.6,144.1z M-175.3,143.2C-175.4,143.3-175.3,143.3-175.3,143.2L-175.3,143.2z M-176,143.8
			C-175.8,143.8-176,143.8-176,143.8L-176,143.8z M-176,143.9C-176,143.9-176,143.9-176,143.9C-176,143.8-176,143.9-176,143.9z
			 M-176.1,144C-176,144-176,144-176.1,144C-176.1,143.9-176.1,144-176.1,144z M-176.9,144.6c0.3-0.1,0.6-0.3,0.8-0.6
			C-176.5,144.1-176.7,144.3-176.9,144.6z M-174.7,145.6c0.5,0,0.7-0.4,1.2-0.5c0.3-0.3,0.8-0.4,1-0.8c-0.6,0-0.8,0.4-1.2,0.5
			C-174,145.1-174.4,145.2-174.7,145.6z M-176.9,144.6C-177.3,144.5-177,144.8-176.9,144.6L-176.9,144.6z M-177.5,145
			C-177.4,145-177.4,145-177.5,145C-177.4,144.9-177.5,144.9-177.5,145z M-174.7,145.6C-174.8,145.6-174.7,145.7-174.7,145.6
			L-174.7,145.6z M-175.8,147.4c-0.2-0.2-0.7-0.2-1-0.4c-0.7,0-1.2,0.1-1.7,0.2c-0.3,0.2-0.6,0.3-0.9,0.5c-0.3,0.2-0.4,0.4-0.8,0.5
			c-0.2,0.2-0.4,0.5-0.7,0.6c0,0.2-0.2,0.3-0.3,0.4c-0.1,0.1-0.1,0.3-0.2,0.4c0,0.1,0,0.3-0.1,0.3c0.1,1.5,0.3,2.9,0.7,4.2
			c0.3,0.6,1,0.8,1.4,1.3c0.6,0.3,1.3,0.4,2.1,0.5c0.3-0.1,0.6-0.1,0.9-0.1c1.2-0.2,2.1-0.7,2.8-1.4c0.1-0.3,0.3-0.5,0.5-0.7
			c-0.3-0.7,0.3-1.1,0.5-1.6c0-1.3-0.2-2.5-0.6-3.4c-0.3-0.6-0.9-0.8-1.4-1.1c-0.1,0-0.2,0-0.2-0.1
			C-175,147.4-175.5,147.3-175.8,147.4z M-179.2,151.7c-0.1-0.1-0.1-0.2-0.2-0.4C-179.1,151.3-179.3,151.6-179.2,151.7z M-179.1,152
			C-179.1,151.9-179.1,152-179.1,152C-179.1,152.2-179.1,152.1-179.1,152z M-178.7,150C-178.7,149.9-178.6,150-178.7,150
			C-178.6,150.1-178.7,150-178.7,150z M-177,147.9c-0.2,0.3,0,0.6,0.1,0.8C-177.2,148.7-177.5,147.8-177,147.9z M-176.6,151.8
			C-176.7,151.8-176.6,151.7-176.6,151.8C-176.5,151.8-176.6,151.8-176.6,151.8z M-175.9,154.7c0-0.1,0.1,0,0.2,0
			C-175.7,154.8-175.9,154.8-175.9,154.7z M-173.7,152.1c-0.2-0.1-0.1,0.2-0.4,0.2c0.1-0.2,0.1-0.3,0.2-0.5
			C-173.7,151.8-173.7,152-173.7,152.1z M-174.8,148.3c0.2,0.1,0.4,0.2,0.6,0.4c0.1,0.2,0.2,0.4,0.4,0.5c0.1,0.8,0.2,1.5,0.2,2.4
			c-0.3,0.1-0.4,0.3-0.7,0.4c-0.8,0-1.4-0.2-1.9-0.5c-0.2-0.3-0.4-0.5-0.5-0.8v-1.1c0.2-0.2,0.3-0.4,0.5-0.6
			c0.2-0.1,0.5-0.2,0.5-0.6c0-0.1-0.1-0.1-0.1-0.2c0.2,0,0.2,0.2,0.4,0.2C-175.3,148.5-175.2,148.3-174.8,148.3z"/>
	</g>
</g>
</svg>
