<svg xmlns="http://www.w3.org/2000/svg" viewBox="-183 132.7 32 37.3"><path fill="#63D1BB" d="M-167 170c8.8 0 16-7.2 16-16-8.9 0-16 7.2-16 16zm-11.4-20.9c0 2.5 2 4.4 4.4 4.4.9 0 1.8-.3 2.5-.8v.3c0 2.5 2 4.4 4.4 4.4s4.4-2 4.4-4.4v-.3a4.376 4.376 0 0 0 6.9-3.6c0-1.8-1-3.3-2.5-4 1.5-.7 2.5-2.2 2.5-4 0-2.5-2-4.4-4.4-4.4-.9 0-1.8.3-2.5.8v-.3c0-2.5-2-4.4-4.4-4.4-2.5 0-4.4 2-4.4 4.4v.3a4.376 4.376 0 0 0-6.9 3.6c0 1.8 1 3.3 2.5 4-1.4.7-2.5 2.3-2.5 4zm11.4-8.4c2.5 0 4.4 2 4.4 4.4s-2 4.4-4.4 4.4c-2.5 0-4.4-2-4.4-4.4-.1-2.4 1.9-4.4 4.4-4.4zm-16 13.3c0 8.8 7.2 16 16 16 0-8.8-7.2-16-16-16z"/></svg>