<?xml version="1.0" encoding="utf-8"?>
<!-- Generator: Adobe Illustrator 19.1.1, SVG Export Plug-In . SVG Version: 6.00 Build 0)  -->
<svg version="1.1" id="Layer_1" xmlns="http://www.w3.org/2000/svg" xmlns:xlink="http://www.w3.org/1999/xlink" x="0px" y="0px"
	 viewBox="-182 133.6 34.4 34.4" style="enable-background:new -182 133.6 34.4 34.4;" xml:space="preserve">
<style type="text/css">
	.st0{fill:#63D1BB;}
</style>
<g>
	<path class="st0" d="M-181.7,147.7c-0.4,2.1-0.4,4.2,0,6.3l4.1-3.2L-181.7,147.7z"/>
	<path class="st0" d="M-157.6,135.2c-4.8-2.2-10.4-2.1-15.3,0.4l7.5,5.6L-157.6,135.2z"/>
	<path class="st0" d="M-148.1,146.8l-4.8,3.7l4.9,3.7C-147.5,151.8-147.5,149.3-148.1,146.8z"/>
	<path class="st0" d="M-172.8,166c4.8,2.5,10.7,2.7,15.7,0.1l-8.1-6.1L-172.8,166z"/>
	<path class="st0" d="M-174.1,148.1l-6.2-4.7c-0.3,0.7-0.6,1.4-0.8,2.1l5.3,4L-174.1,148.1z"/>
	<path class="st0" d="M-163.4,158.7l8.3,6.2c0.3-0.2,0.6-0.4,0.8-0.6c0.3-0.2,0.6-0.5,0.9-0.8l-8.3-6.2L-163.4,158.7z"/>
	<path class="st0" d="M-170.6,145.3l-7.4-5.5c-0.5,0.6-0.9,1.1-1.3,1.7l6.9,5.2L-170.6,145.3z"/>
	<path class="st0" d="M-159.9,156l8.1,6.1c0.5-0.5,0.9-1.1,1.3-1.7l-7.6-5.7L-159.9,156z"/>
	<path class="st0" d="M-167.1,142.6l-7.7-5.8c-0.2,0.1-0.4,0.3-0.6,0.4c-0.4,0.3-0.8,0.6-1.1,1l7.7,5.7L-167.1,142.6z"/>
	<path class="st0" d="M-156.4,153.3l7,5.2c0.3-0.7,0.6-1.3,0.9-2l-6.1-4.6L-156.4,153.3z"/>
	<path class="st0" d="M-155.6,136.3l-25.6,19.9c0.2,0.7,0.5,1.4,0.8,2.1l26.5-20.7C-154.3,137.2-154.9,136.7-155.6,136.3z"/>
	<path class="st0" d="M-151.3,140.3c-0.3-0.4-0.6-0.8-0.9-1.1l-27,21c0.3,0.4,0.5,0.8,0.8,1.2c0.1,0.2,0.3,0.4,0.4,0.5l27.1-21.1
		C-151,140.6-151.1,140.4-151.3,140.3z"/>
	<path class="st0" d="M-149.7,142.6l-26.7,20.8c0.5,0.5,1.1,1,1.7,1.4l26-20.2C-149,143.9-149.3,143.3-149.7,142.6z"/>
</g>
</svg>
