<?xml version="1.0" encoding="utf-8"?>
<!-- Generator: Adobe Illustrator 19.1.1, SVG Export Plug-In . SVG Version: 6.00 Build 0)  -->
<svg version="1.1" id="Layer_1" xmlns="http://www.w3.org/2000/svg" xmlns:xlink="http://www.w3.org/1999/xlink" x="0px" y="0px"
	 viewBox="-189 141.2 20.3 18.8" style="enable-background:new -189 141.2 20.3 18.8;" xml:space="preserve">
<style type="text/css">
	.st0{fill:#231F20;}
</style>
<path class="st0" d="M-169.7,148.3h-3.2l-3.4-6.8c-0.2-0.4-0.6-0.5-1-0.3s-0.5,0.6-0.3,1l3.1,6.1h-9.1l3.1-6.1c0.2-0.4,0-0.8-0.3-1
	s-0.8,0-1,0.3l-3.4,6.8h-3.2c-0.4,0-0.8,0.3-0.8,0.8s0.3,0.8,0.8,0.8h0.2l0.9,3c-0.2,0.1-0.3,0.3-0.3,0.6c0,0.4,0.3,0.7,0.7,0.7
	l1.7,5.8h12.7l1.7-5.8c0.4,0,0.7-0.3,0.7-0.7c0-0.2-0.1-0.5-0.3-0.6l0.9-3h0.2c0.4,0,0.8-0.3,0.8-0.8S-169.2,148.3-169.7,148.3z
	 M-173.8,158.4h-10.4l-1.2-4.3h12.9L-173.8,158.4z M-172.2,152.6h-13.7l-0.8-2.8h15.4L-172.2,152.6z"/>
</svg>
