<svg version="1.1" xmlns="http://www.w3.org/2000/svg" x="0px" y="0px" viewBox="-183 132.7 32 37.3" style="enable-background:new -183 132.7 32 37.3;" xml:space="preserve">
<path fill="#63D1BB" d="M-167,170c8.8,0,16-7.2,16-16C-159.9,154-167,161.2-167,170z M-178.4,149.1c0,2.5,2,4.4,4.4,4.4c0.9,0,1.8-0.3,2.5-0.8l0,0.3c0,2.5,2,4.4,4.4,4.4s4.4-2,4.4-4.4l0-0.3c0.7,0.5,1.6,0.8,2.5,0.8c2.5,0,4.4-2,4.4-4.4c0-1.8-1-3.3-2.5-4c1.5-0.7,2.5-2.2,2.5-4c0-2.5-2-4.4-4.4-4.4c-0.9,0-1.8,0.3-2.5,0.8l0-0.3c0-2.5-2-4.4-4.4-4.4c-2.5,0-4.4,2-4.4,4.4l0,0.3c-0.7-0.5-1.6-0.8-2.5-0.8c-2.5,0-4.4,2-4.4,4.4c0,1.8,1,3.3,2.5,4C-177.3,145.8-178.4,147.4-178.4,149.1z M-167,140.7c2.5,0,4.4,2,4.4,4.4s-2,4.4-4.4,4.4c-2.5,0-4.4-2-4.4-4.4C-171.5,142.7-169.5,140.7-167,140.7z M-183,154c0,8.8,7.2,16,16,16C-167,161.2-174.2,154-183,154z"/>
</svg>
