<?xml version="1.0" encoding="utf-8"?>
<!-- Generator: Adobe Illustrator 19.1.1, SVG Export Plug-In . SVG Version: 6.00 Build 0)  -->
<svg version="1.1" id="Layer_1" xmlns="http://www.w3.org/2000/svg" xmlns:xlink="http://www.w3.org/1999/xlink" x="0px" y="0px"
	 viewBox="-183 134.5 32.7 32.5" style="enable-background:new -183 134.5 32.7 32.5;" xml:space="preserve">
<style type="text/css">
	.st0{fill:#63D1BB;}
</style>
<path class="st0" d="M-180.1,167h12.5v-13.9h-12.5V167z M-151.9,143.4h-7.3c0.5-0.3,1-0.5,1.4-0.8c1.6-1.1,2.4-2.6,2.4-4
	c0-1.2-0.6-2.2-1.4-2.9c-0.8-0.7-1.9-1.1-3-1.1c-1.2,0-2.4,0.4-3.3,1.1c-1.5,1-2.6,2.5-3.4,4.1c0,0.1-0.1,0.2-0.1,0.2
	c-0.3-0.6-0.6-1.2-1-1.8c-0.7-1-1.5-1.9-2.5-2.5c-1-0.6-2.1-1.1-3.3-1.1c-1.2,0-2.3,0.5-3.2,1.3c-0.8,0.8-1.4,1.9-1.4,3.1
	c0,0.7,0.2,1.5,0.6,2.2c0.6,0.9,1.4,1.6,2.6,2.2h-6.6c-0.9,0-1.6,0.7-1.6,1.6v5.9h15.4v-7.5h1.9v7.5h15.4V145
	C-150.3,144.1-151,143.4-151.9,143.4 M-174.3,141c-0.6-0.4-1-0.8-1.2-1.1c-0.2-0.4-0.3-0.7-0.3-1c0-0.5,0.2-1,0.7-1.5
	c0.4-0.4,1-0.7,1.6-0.7h0c0.7,0,1.4,0.2,2,0.7c1,0.7,2,1.9,2.6,3.2c0.3,0.7,0.6,1.4,0.8,2.1C-171.1,142.5-173.1,141.8-174.3,141
	 M-163.7,139.4c0.6-0.8,1.2-1.5,1.9-1.9c0.7-0.5,1.4-0.7,2-0.7h0c0.6,0,1.1,0.2,1.5,0.6c0.4,0.3,0.6,0.7,0.6,1.2
	c0,0.5-0.3,1.3-1.5,2.1c-1.1,0.8-3.1,1.7-6.1,2.3C-165,141.7-164.5,140.5-163.7,139.4 M-165.7,167h12.5v-13.9h-12.5V167z"/>
</svg>
