<svg version="1.1" xmlns="http://www.w3.org/2000/svg" x="0px" y="0px" viewBox="-176 137.7 46.6 27.3" style="enable-background:new -176 137.7 46.6 27.3;" xml:space="preserve">
<g fill="#63D1BB">
<path d="M-133.3,137.7h-38.8c-2.2,0-3.9,1.7-3.9,3.9v19.5c0,2.2,1.7,3.9,3.9,3.9h38.8c2.2,0,3.9-1.7,3.9-3.9v-19.5C-129.4,139.4-131.2,137.7-133.3,137.7z M-173,162.6v-22.2h40.2v22.2H-173z"/>
<path d="M-168.9,158.5h32.4v-14.4h-32.4V158.5z M-152.6,146c2.9,0,5.3,2.4,5.3,5.3c0,2.9-2.4,5.3-5.3,5.3s-5.3-2.4-5.3-5.3C-157.9,148.4-155.5,146-152.6,146z"/>
</g>
</svg>
