<svg version="1.1" xmlns="http://www.w3.org/2000/svg" x="0px" y="0px" viewBox="-179 119.6 40.2 62.4" style="enable-background:new -179 119.6 40.2 62.4;" xml:space="preserve">
<g fill="#35A999">
<path d="M-163.7,157.6c-0.3,1-0.2,2.2,0,3.6c0.5,2.6,1.7,6,2.4,9.7h5.1c0.7-3.6,1.9-7.1,2.5-9.7c0.3-1.4,0.3-2.7,0-3.6s-0.9-1.6-2-2.3h-6C-162.9,156-163.5,156.7-163.7,157.6z"/>
<path d="M-151.9,177.6h-13.8c-1.3,0-2.3,1-2.3,2.2v2.2h2.3h13.8h2.3v-2.2C-149.6,178.5-150.6,177.6-151.9,177.6z"/>
<path d="M-144.8,121.8h-11.7c0-1.2-1-2.2-2.3-2.2s-2.3,1-2.3,2.2h-11.7l-6.1,25.5c0.8-0.5,1.6-1,2.6-1c1.4,0,2.2,0.8,2.9,1.4c0.7,0.6,1.2,0.8,1.4,0.8c0.3,0,0.8-0.3,1.5-0.8s1.6-1.4,2.9-1.4s2.2,0.8,2.9,1.4c0.7,0.5,1.2,0.8,1.5,0.8c0.1,0,0.3-0.1,0.6-0.2c0.2-0.1,0.5-0.4,0.9-0.6c0.5-0.4,1.1-1,2-1.2c0.3-0.1,0.6-0.1,0.9-0.1c1.3,0,2.2,0.8,2.9,1.4c0.7,0.5,1.2,0.8,1.5,0.8s0.8-0.3,1.4-0.8c0.7-0.6,1.6-1.4,2.9-1.4c1.4,0,2.2,0.8,2.9,1.4c0.3,0.3,0.6,0.5,0.9,0.6c0.2,0.1,0.4,0.2,0.6,0.2c0.3,0,0.8-0.3,1.4-0.9c0.7-0.6,1.6-1.4,2.9-1.4c1,0,1.8,0.5,2.6,1L-144.8,121.8z"/>
<path d="M-155.4,173.1h-6.9c-0.7,0-1.1,0.5-1.1,1.1s0.5,1.1,1.1,1.1h6.9c0.7,0,1.1-0.5,1.1-1.1C-154.2,173.6-154.7,173.1-155.4,173.1L-155.4,173.1z"/>
<path d="M-158.8,148.6c-0.1,0-0.3,0.1-0.6,0.2c-0.2,0.1-0.4,0.3-0.6,0.4v3.7h2.3v-3.7C-158.2,148.9-158.6,148.6-158.8,148.6z"/>
</g>
</svg>
